:FULLY-SPECIFIED
:FORCE-ALL-JOINTS-BE-3DOF
:DEGREES
3160
root 0.95161 16.9233 -33.3627 1086.06 5.19763 -3.76423
lfemur -18.6087 -2.46611 -8.23752
ltibia 35.2538 0 0
lfoot -16.3867 7.68121 0
ltoes -40.6601 0 0
rfemur -19.3959 -0.19504 18.4938
rtibia 38.9784 0 0
rfoot -12.1479 -21.0539 0
rtoes -16.3959 0 0
lowerback 5.77616 1.52752 -0.532167
upperback -4.09146 2.13377 1.85283
thorax -7.62707 1.13322 1.98175
lowerneck -5.42008 -5.14358 -7.88669
upperneck 9.37552 -6.7962 5.98402
head 4.15739 -3.34052 2.73028
lclavicle 4.27769e-16 -2.71933e-15 0
lhumerus -33.412 -18.2925 94.788
lradius 51.3153 0 0
lwrist -9.03112 0 0
lhand -34.0986 389.413 0
lfingers 7.12502 0 0
lthumb -7.27474 -660.733 0
rclavicle 4.27769e-16 -2.71933e-15 0
rhumerus -35.5418 13.9558 -81.3513
rradius 50.3226 0 0
rwrist 1.71455 0 0
rhand -29.2452 -394.134 0
rfingers 7.12502 0 0
rthumb -2.5885 295.903 0
3161
root 0.955966 16.9249 -33.3593 1086.06 5.13771 -3.79427
lfemur -18.5429 -2.4819 -8.24259
ltibia 35.2059 0 0
lfoot -16.3696 7.75373 0
ltoes -40.6356 0 0
rfemur -19.3316 -0.161402 18.4937
rtibia 38.8679 0 0
rfoot -12.1135 -21.0207 0
rtoes -16.3901 0 0
lowerback 5.74828 1.53643 -0.541098
upperback -4.11054 2.14504 1.85311
thorax -7.63218 1.13942 1.98607
lowerneck -5.45774 -5.13668 -7.87735
upperneck 9.46806 -6.78814 5.9828
head 4.18896 -3.33581 2.72456
lclavicle 1.59445e-16 -2.86731e-15 0
lhumerus -33.404 -18.0631 94.7014
lradius 50.8912 0 0
lwrist -9.18707 0 0
lhand -34.1232 389.391 0
lfingers 7.12502 0 0
lthumb -7.29851 -660.755 0
rclavicle 1.59445e-16 -2.86731e-15 0
rhumerus -35.5416 13.6858 -81.304
rradius 49.7667 0 0
rwrist 1.87374 0 0
rhand -29.1936 -394.139 0
rfingers 7.12502 0 0
rthumb -2.53866 295.897 0
3162
root 0.960323 16.9265 -33.3559 1086.05 5.07732 -3.82291
lfemur -18.4785 -2.4955 -8.24795
ltibia 35.1591 0 0
lfoot -16.3533 7.82432 0
ltoes -40.6099 0 0
rfemur -19.2707 -0.128727 18.4934
rtibia 38.7618 0 0
rfoot -12.081 -20.9875 0
rtoes -16.3838 0 0
lowerback 5.72152 1.54536 -0.549716
upperback -4.12942 2.15641 1.85352
thorax -7.63774 1.14566 1.99032
lowerneck -5.49345 -5.12901 -7.86801
upperneck 9.55758 -6.77909 5.98141
head 4.21945 -3.33065 2.71925
lclavicle -1.67373e-16 -2.98754e-15 0
lhumerus -33.3897 -17.8372 94.6166
lradius 50.4631 0 0
lwrist -9.34578 0 0
lhand -34.1457 389.375 0
lfingers 7.12502 0 0
lthumb -7.32023 -660.772 0
rclavicle -1.67373e-16 -2.98754e-15 0
rhumerus -35.5399 13.4183 -81.2565
rradius 49.2212 0 0
rwrist 2.02266 0 0
rhand -29.1378 -394.14 0
rfingers 7.12502 0 0
rthumb -2.48474 295.896 0
3163
root 0.964679 16.9281 -33.3525 1086.05 5.01651 -3.85018
lfemur -18.4156 -2.50699 -8.25358
ltibia 35.1136 0 0
lfoot -16.3378 7.89304 0
ltoes -40.5832 0 0
rfemur -19.2132 -0.0970022 18.4929
rtibia 38.6601 0 0
rfoot -12.0503 -20.9546 0
rtoes -16.377 0 0
lowerback 5.69586 1.55431 -0.558028
upperback -4.1481 2.16786 1.85406
thorax -7.64372 1.15193 1.99451
lowerneck -5.52727 -5.12061 -7.85866
upperneck 9.64417 -6.76911 5.97987
head 4.24887 -3.32505 2.71433
lclavicle -5.48414e-16 -3.08111e-15 0
lhumerus -33.3693 -17.6146 94.5334
lradius 50.0313 0 0
lwrist -9.50705 0 0
lhand -34.1662 389.365 0
lfingers 7.12502 0 0
lthumb -7.33997 -660.783 0
rclavicle -5.48414e-16 -3.08111e-15 0
rhumerus -35.5369 13.1536 -81.2089
rradius 48.6863 0 0
rwrist 2.16166 0 0
rhand -29.0778 -394.137 0
rfingers 7.12502 0 0
rthumb -2.42685 295.898 0
3164
root 0.969035 16.9297 -33.3491 1086.05 4.95534 -3.87614
lfemur -18.3541 -2.51647 -8.25946
ltibia 35.0693 0 0
lfoot -16.323 7.95995 0
ltoes -40.5554 0 0
rfemur -19.1587 -0.0662148 18.4924
rtibia 38.5627 0 0
rfoot -12.0213 -20.9219 0
rtoes -16.3698 0 0
lowerback 5.67128 1.56328 -0.566039
upperback -4.16658 2.17938 1.85471
thorax -7.65011 1.15822 1.99864
lowerneck -5.55928 -5.11154 -7.84931
upperneck 9.72793 -6.75827 5.97818
head 4.27727 -3.31905 2.70979
lclavicle -9.79402e-16 -3.14912e-15 0
lhumerus -33.3433 -17.3954 94.4518
lradius 49.5962 0 0
lwrist -9.6707 0 0
lhand -34.1847 389.359 0
lfingers 7.12502 0 0
lthumb -7.35781 -660.789 0
rclavicle -9.79402e-16 -3.14912e-15 0
rhumerus -35.5324 12.8916 -81.1613
rradius 48.1617 0 0
rwrist 2.29109 0 0
rhand -29.0139 -394.131 0
rfingers 7.12502 0 0
rthumb -2.3651 295.904 0
3165
root 0.973391 16.9313 -33.3457 1086.05 4.89385 -3.90083
lfemur -18.2939 -2.52401 -8.26558
ltibia 35.0261 0 0
lfoot -16.309 8.02511 0
ltoes -40.5268 0 0
rfemur -19.1074 -0.0363525 18.4917
rtibia 38.4695 0 0
rfoot -11.994 -20.8893 0
rtoes -16.3621 0 0
lowerback 5.64776 1.57226 -0.573757
upperback -4.18483 2.19095 1.85547
thorax -7.65689 1.16453 2.0027
lowerneck -5.58953 -5.10182 -7.83996
upperneck 9.80893 -6.74661 5.97636
head 4.30468 -3.31267 2.70563
lclavicle -1.45607e-15 -3.19266e-15 0
lhumerus -33.3118 -17.1795 94.3717
lradius 49.1583 0 0
lwrist -9.83656 0 0
lhand -34.2012 389.358 0
lfingers 7.12502 0 0
lthumb -7.37382 -660.79 0
rclavicle -1.45607e-15 -3.19266e-15 0
rhumerus -35.5268 12.6325 -81.1136
rradius 47.6474 0 0
rwrist 2.41128 0 0
rhand -28.9461 -394.122 0
rfingers 7.12502 0 0
rthumb -2.29959 295.912 0
3166
root 0.977747 16.9329 -33.3423 1086.05 4.83208 -3.92429
lfemur -18.2351 -2.52971 -8.27192
ltibia 34.9842 0 0
lfoot -16.2957 8.08856 0
ltoes -40.4973 0 0
rfemur -19.0589 -0.0074028 18.4909
rtibia 38.3802 0 0
rfoot -11.9683 -20.8569 0
rtoes -16.3542 0 0
lowerback 5.62527 1.58123 -0.581188
upperback -4.20287 2.20258 1.85634
thorax -7.66403 1.17085 2.00669
lowerneck -5.6181 -5.09151 -7.83062
upperneck 9.88726 -6.73419 5.97442
head 4.33113 -3.30594 2.70181
lclavicle -1.97414e-15 -3.21282e-15 0
lhumerus -33.2752 -16.9668 94.2931
lradius 48.718 0 0
lwrist -10.0044 0 0
lhand -34.216 389.362 0
lfingers 7.12502 0 0
lthumb -7.38808 -660.787 0
rclavicle -1.97414e-15 -3.21282e-15 0
rhumerus -35.52 12.3764 -81.066
rradius 47.1434 0 0
rwrist 2.52259 0 0
rhand -28.8745 -394.109 0
rfingers 7.12502 0 0
rthumb -2.23044 295.924 0
3167
root 0.982103 16.9345 -33.3389 1086.05 4.7701 -3.94659
lfemur -18.1775 -2.53366 -8.27846
ltibia 34.9434 0 0
lfoot -16.2831 8.15036 0
ltoes -40.467 0 0
rfemur -19.0132 0.0206469 18.4901
rtibia 38.2949 0 0
rfoot -11.9441 -20.8248 0
rtoes -16.3459 0 0
lowerback 5.60379 1.59021 -0.588339
upperback -4.22067 2.21424 1.85731
thorax -7.67152 1.17719 2.01061
lowerneck -5.64505 -5.08065 -7.8213
upperneck 9.963 -6.72107 5.97236
head 4.35665 -3.29889 2.69832
lclavicle -2.52933e-15 -3.21071e-15 0
lhumerus -33.2338 -16.7572 94.216
lradius 48.2755 0 0
lwrist -10.1742 0 0
lhand -34.229 389.37 0
lfingers 7.12502 0 0
lthumb -7.40067 -660.78 0
rclavicle -2.52933e-15 -3.21071e-15 0
rhumerus -35.5121 12.1234 -81.0185
rradius 46.6496 0 0
rwrist 2.62535 0 0
rhand -28.7992 -394.094 0
rfingers 7.12502 0 0
rthumb -2.15774 295.939 0
3168
root 0.986459 16.9361 -33.3355 1086.05 4.70796 -3.96775
lfemur -18.1213 -2.53593 -8.28519
ltibia 34.9038 0 0
lfoot -16.2712 8.21058 0
ltoes -40.436 0 0
rfemur -18.9703 0.047809 18.4891
rtibia 38.2134 0 0
rfoot -11.9215 -20.7928 0
rtoes -16.3374 0 0
lowerback 5.5833 1.59917 -0.595215
upperback -4.23824 2.22593 1.85837
thorax -7.67932 1.18352 2.01446
lowerneck -5.67044 -5.06927 -7.81199
upperneck 10.0362 -6.7073 5.97021
head 4.38128 -3.29154 2.69516
lclavicle -3.11739e-15 -3.18742e-15 0
lhumerus -33.1878 -16.5508 94.1402
lradius 47.8314 0 0
lwrist -10.3456 0 0
lhand -34.2404 389.382 0
lfingers 7.12502 0 0
lthumb -7.41165 -660.768 0
rclavicle -3.11739e-15 -3.18742e-15 0
rhumerus -35.5032 11.8736 -80.9712
rradius 46.1659 0 0
rwrist 2.71992 0 0
rhand -28.7204 -394.076 0
rfingers 7.12502 0 0
rthumb -2.08162 295.956 0
3169
root 0.990816 16.9377 -33.3321 1086.05 4.64569 -3.98783
lfemur -18.0662 -2.53661 -8.29209
ltibia 34.8654 0 0
lfoot -16.26 8.26925 0
ltoes -40.4045 0 0
rfemur -18.9298 0.0740961 18.4881
rtibia 38.1356 0 0
rfoot -11.9004 -20.7611 0
rtoes -16.3287 0 0
lowerback 5.56377 1.60811 -0.601825
upperback -4.25556 2.23763 1.85951
thorax -7.68743 1.18985 2.01824
lowerneck -5.69435 -5.05744 -7.80271
upperneck 10.1071 -6.69295 5.96797
head 4.40504 -3.28393 2.6923
lclavicle -3.73403e-15 -3.14404e-15 0
lhumerus -33.1376 -16.3473 94.0658
lradius 47.3861 0 0
lwrist -10.5184 0 0
lhand -34.2502 389.398 0
lfingers 7.12502 0 0
lthumb -7.4211 -660.752 0
rclavicle -3.73403e-15 -3.14404e-15 0
rhumerus -35.4934 11.6271 -80.9241
rradius 45.6923 0 0
rwrist 2.80663 0 0
rhand -28.6382 -394.056 0
rfingers 7.12502 0 0
rthumb -2.00217 295.975 0
